<?xml version="1.0" standalone="no"?><!DOCTYPE svg PUBLIC "-//W3C//DTD SVG 1.1//EN" "http://www.w3.org/Graphics/SVG/1.1/DTD/svg11.dtd"><svg t="1545390836116" class="icon" style="" viewBox="0 0 1024 1024" version="1.1" xmlns="http://www.w3.org/2000/svg" p-id="8649" xmlns:xlink="http://www.w3.org/1999/xlink" width="17" height="17"><defs><style type="text/css"></style></defs><path d="M511.674077 63.444984c-247.539816 0-448.208115 200.650903-448.208115 448.208115 0 247.521396 200.668299 448.208115 448.208115 448.208115s448.208115-200.686718 448.208115-448.208115C959.882192 264.095887 759.213893 63.444984 511.674077 63.444984zM672.568511 741.846852c-14.570857 14.700817-38.498826 14.700817-53.06252 0L487.018537 608.641037c-9.893324-9.956769-8.998955-23.817452-8.998955-44.900629 0-21.120017-4.779863-265.212314-4.779863-265.212314 0-20.935822 16.752546-37.897122 37.414121-37.897122 20.662599 0 37.414121 16.9613 37.414121 37.897122l0 265.212314c0 1.093914 124.792191 124.818797 124.792191 124.818797C687.422823 703.257975 687.131181 727.112266 672.568511 741.846852z" p-id="8650" fill="#bbbbbb"></path></svg>