<?xml version="1.0" standalone="no"?><!DOCTYPE svg PUBLIC "-//W3C//DTD SVG 1.1//EN" "http://www.w3.org/Graphics/SVG/1.1/DTD/svg11.dtd"><svg t="1544687977661" class="icon" style="" viewBox="0 0 1024 1024" version="1.1" xmlns="http://www.w3.org/2000/svg" p-id="12515" xmlns:xlink="http://www.w3.org/1999/xlink" width="20" height="20"><defs><style type="text/css"></style></defs><path d="M377.404024 555.933605 151.563416 555.933605c-49.170886 0-89.174995 40.025599-89.174995 89.228207l0 225.786373c0 49.203632 40.004109 89.229231 89.174995 89.229231l225.840608 0c49.193399 0 89.206718-40.025599 89.206718-89.229231L466.610742 645.161812C466.610742 595.959204 426.597423 555.933605 377.404024 555.933605zM444.390671 870.948185c0 36.942377-30.054503 67.010183-66.985624 67.010183L151.563416 937.958368c-36.920888 0-66.952878-30.068829-66.952878-67.010183L84.610538 645.161812c0-36.944424 30.03199-67.00609 66.952878-67.00609l225.840608 0c36.932144 0 66.985624 30.062689 66.985624 67.00609L444.389648 870.948185z" p-id="12516" fill="#01ABFD"></path><path d="M377.404024 103.538121 151.563416 103.538121c-49.170886 0-89.174995 40.025599-89.174995 89.229231l0 225.787396c0 49.212842 40.004109 89.24765 89.174995 89.24765l225.840608 0c49.193399 0 89.206718-40.034808 89.206718-89.24765L466.610742 192.767352C466.610742 143.564743 426.597423 103.538121 377.404024 103.538121zM444.390671 418.554748c0 36.963866-30.054503 67.028603-66.985624 67.028603L151.563416 485.58335c-36.920888 0-66.952878-30.065759-66.952878-67.028603L84.610538 192.767352c0-36.9434 30.03199-67.008136 66.952878-67.008136l225.840608 0c36.932144 0 66.985624 30.065759 66.985624 67.008136L444.389648 418.554748z" p-id="12517" fill="#01ABFD"></path><path d="M938.101119 228.484831 796.272927 86.602404c-30.465872-30.391171-83.458807-30.358425-113.837698 0.010233L540.541545 228.484831c-31.377638 31.410384-31.377638 82.459037 0 113.815185l141.892661 141.894707c15.190981 15.21247 35.393091 23.597441 56.896848 23.597441 21.484314 0 41.706891-8.375761 56.941873-23.597441l141.829216-141.894707C969.434755 310.933635 969.456245 259.872702 938.101119 228.484831zM922.389276 326.59022 780.56006 468.482881c-22.046109 22.048155-60.410881 22.048155-82.415035 0L556.252365 326.59022c-22.720468-22.697955-22.720468-59.663868 0-82.394568L698.145026 102.323457c11.003612-11.001565 25.62768-17.055444 41.186028-17.055444 15.559371 0 30.207999 6.066159 41.229007 17.055444l141.829216 141.872195C945.066765 266.915096 945.066765 303.879985 922.389276 326.59022z" p-id="12518" fill="#01ABFD"></path><path d="M831.96687 555.933605 606.183568 555.933605c-49.193399 0-89.228207 40.025599-89.228207 89.228207l0 225.786373c0 49.203632 40.034808 89.229231 89.228207 89.229231l225.783303 0c49.193399 0 89.209788-40.025599 89.209788-89.229231L921.176658 645.161812C921.175635 595.959204 881.160269 555.933605 831.96687 555.933605zM898.954541 870.948185c0 36.942377-30.05348 67.010183-66.988694 67.010183L606.183568 937.958368c-36.954657 0-67.00916-30.068829-67.00916-67.010183L539.174408 645.161812c0-36.944424 30.054503-67.00609 67.00916-67.00609l225.783303 0c36.935214 0 66.988694 30.062689 66.988694 67.00609L898.955564 870.948185z" p-id="12519" fill="#01ABFD"></path></svg>